<?xml version="1.0" encoding="UTF-8" standalone="no" ?>
<!DOCTYPE svg PUBLIC "-//W3C//DTD SVG 1.1//EN" "http://www.w3.org/Graphics/SVG/1.1/DTD/svg11.dtd">
<svg xmlns="http://www.w3.org/2000/svg" xmlns:xlink="http://www.w3.org/1999/xlink" version="1.1" width="16" height="16" viewBox="0 0 500 500" xml:space="preserve">
<desc>Created with Fabric.js 4.6.0</desc>
<defs>
</defs>
<g transform="matrix(4.13 0 0 4.13 250 250)" id="LXGS70POBuCcPGIBF4DTe"  >
<path style="stroke: rgb(65,131,135); stroke-width: 0; stroke-dasharray: none; stroke-linecap: butt; stroke-dashoffset: 0; stroke-linejoin: miter; stroke-miterlimit: 4; fill: rgb(255,210,88); fill-rule: nonzero; opacity: 1;" vector-effect="non-scaling-stroke"  transform=" translate(0, 0)" d="M 0 -41.0509 C 22.6601 -41.0509 41.0509 -22.6601 41.0509 0 C 41.0509 22.6601 22.6601 41.0509 0 41.0509 C -22.6601 41.0509 -41.0509 22.6601 -41.0509 0 C -41.0509 -22.6601 -22.6601 -41.0509 0 -41.0509 z" stroke-linecap="round" />
</g>
<g transform="matrix(1 0 0 1 246.72 237.27)" id="fARt9jxg2z27Yc_ffeD1T"  >
<path style="stroke: rgb(130,200,170); stroke-width: 0; stroke-dasharray: none; stroke-linecap: butt; stroke-dashoffset: 0; stroke-linejoin: miter; stroke-miterlimit: 4; fill: rgb(255,210,88); fill-rule: nonzero; opacity: 1;" vector-effect="non-scaling-stroke"  transform=" translate(-41.05, -41.05)" d="M 0 0 L 82.10180623973727 0 L 82.10180623973727 82.10180623973727 L 0 82.10180623973727 Z" stroke-linecap="round" />
</g>
<g transform="matrix(0.64 0 0 1.82 248.03 292.04)" id="2Jc04xU8Hg0o4Gt8pyUus"  >
<path style="stroke: rgb(252,82,235); stroke-width: 0; stroke-dasharray: none; stroke-linecap: butt; stroke-dashoffset: 0; stroke-linejoin: miter; stroke-miterlimit: 4; fill: rgb(53,53,53); fill-rule: nonzero; opacity: 1;" vector-effect="non-scaling-stroke"  transform=" translate(0, 0)" d="M -41.0509 -41.0509 L 41.05091 -41.0509 L 41.05091 41.05091 L -41.0509 41.05091 z" stroke-linecap="round" />
</g>
<g transform="matrix(0.6 0 0 0.6 248.19 177.8)" id="PUpk8fCSMa3MlBCO315om"  >
<path style="stroke: rgb(62,229,243); stroke-width: 0; stroke-dasharray: none; stroke-linecap: butt; stroke-dashoffset: 0; stroke-linejoin: miter; stroke-miterlimit: 4; fill: rgb(53,53,53); fill-rule: nonzero; opacity: 1;" vector-effect="non-scaling-stroke"  transform=" translate(0, 0)" d="M 0 -41.0509 C 22.6601 -41.0509 41.0509 -22.6601 41.0509 0 C 41.0509 22.6601 22.6601 41.0509 0 41.0509 C -22.6601 41.0509 -41.0509 22.6601 -41.0509 0 C -41.0509 -22.6601 -22.6601 -41.0509 0 -41.0509 z" stroke-linecap="round" />
</g>
</svg>